<svg id="Layer_1" data-name="Layer 1" xmlns="http://www.w3.org/2000/svg" viewBox="0 0 1080 1080"><defs><style>.cls-1{fill:#00a082;fill-rule:evenodd;}.cls-2{fill:#f5bc31;}</style></defs><path class="cls-1" d="M277.09,526.63H211.21c-10.15,0-18.58,8-18.58,18s8.43,17.66,18.58,17.66h45.92v43.55c-14.41,10.64-34.5,17.62-56.61,17.62-47.91,0-79.74-35.24-79.74-83.12v-.29c0-45,33.46-83,77.5-83,26,0,42.69,7.4,58.06,18.49,3.41,2.36,7.5,4.71,13,4.71a20.61,20.61,0,0,0,12.29-37.32c-21.86-15.46-45.75-23.85-81.61-23.85-72.05,0-123.26,55.78-123.26,121.67V541c0,68,48.65,120,122.65,120a152,152,0,0,0,84.13-25.33c9.79-6,14.53-14.33,14.53-26V547.3C298,535.63,288.91,526.63,277.09,526.63Z"/><path class="cls-2" d="M567.92,427.62H493.46L446,652.38h95c71.49,0,120.25-55.6,120.25-135.2C661.22,460.79,625.24,427.62,567.92,427.62ZM536.45,617.8H493.62L527.11,462H559.5c39.41,0,60.44,21.5,60.44,60.28C619.94,579.17,585.05,617.8,536.45,617.8Z"/><polygon class="cls-2" points="315.67 651.71 432.1 651.71 440.27 613.25 315.67 613.25 315.67 651.71"/><polygon class="cls-2" points="460.27 518.8 362.3 518.8 362.3 557.26 452.13 557.26 460.27 518.8"/><polygon class="cls-2" points="479.6 427.69 404.99 427.69 404.99 466.15 471.46 466.15 479.6 427.69"/><polygon class="cls-2" points="821.02 425.36 813.71 460.79 884.1 460.79 842.79 654.64 884.26 654.64 925.57 460.79 995.96 460.79 1003.27 425.36 821.02 425.36"/><polygon class="cls-2" points="666.81 653.95 826.45 653.95 834.78 614.72 666.81 614.72 666.81 653.95"/><polygon class="cls-2" points="855.18 518.38 707.68 518.38 707.68 557.61 846.88 557.61 855.18 518.38"/><polygon class="cls-2" points="813.38 425.44 737.27 425.44 737.27 464.67 805.07 464.67 813.38 425.44"/></svg>